<svg width="285" height="338" viewBox="0 0 285 338" fill="none" xmlns="http://www.w3.org/2000/svg">
<path fill-rule="evenodd" clip-rule="evenodd" d="M73.3464 36.2933C73.3497 33.9319 73.3563 31.5738 73.3596 29.2124C73.6033 25.7938 75.3489 23.5443 78.5995 22.4641C79.1363 22.3126 79.6863 22.2105 80.2429 22.1512C82.8612 22.1347 85.4762 22.1611 88.0912 22.2335C91.2497 22.8 93.2389 24.6345 94.0623 27.7336C94.1743 28.2211 94.2434 28.7118 94.2665 29.2124C94.2797 31.9558 94.2566 34.6993 94.1874 37.4395C93.4168 41.2796 91.0718 43.3413 87.1592 43.618C84.8538 43.6147 82.5484 43.6081 80.2429 43.5949C76.8375 43.3677 74.6243 41.6287 73.6033 38.3748C73.4617 37.6898 73.3761 36.9948 73.3464 36.2933ZM99.3187 58.3595C99.4405 55.57 100.788 53.6367 103.363 52.5597C103.791 52.4181 104.229 52.3028 104.671 52.2106C105.915 52.1612 107.157 52.1876 108.395 52.2864C111.192 52.9484 112.828 54.7005 113.303 57.5395C113.342 58.5275 113.359 59.5122 113.352 60.5003C113.234 62.9704 112.104 64.8147 109.96 66.0399C109.311 66.3626 108.629 66.5701 107.911 66.6623C106.601 66.7348 105.3 66.6854 104.005 66.5141C101.947 65.9147 100.508 64.6237 99.6875 62.641C99.5591 62.203 99.4636 61.7584 99.401 61.3039C99.3384 60.3224 99.3121 59.341 99.3187 58.3595ZM248.618 71.8627C248.618 70.0513 248.624 68.2399 248.644 66.4285C248.987 63.1647 250.722 61.0503 253.854 60.0787C254.385 59.9832 254.918 59.9075 255.455 59.8548C257.322 59.8482 259.187 59.8547 261.054 59.8679C265.023 60.2829 267.242 62.4731 267.707 66.4384C267.726 68.3025 267.733 70.1633 267.73 72.0274C267.45 75.8774 265.424 78.1993 261.65 78.9832C261.235 79.0589 260.817 79.0886 260.395 79.0721C258.531 79.0853 256.667 79.0721 254.806 79.0359C251.714 78.6242 249.724 76.9248 248.838 73.9376C248.684 73.2558 248.611 72.5642 248.618 71.8627ZM14.4561 94.2582C14.7097 91.0142 16.4387 89.104 19.6433 88.5276C20.74 88.5276 21.84 88.5408 22.9367 88.5606C25.9041 89.0579 27.5937 90.7902 28.0054 93.7642C28.0383 94.7523 28.058 95.7403 28.0712 96.7283C27.7155 100.233 25.7856 102.149 22.278 102.479C21.402 102.482 20.5226 102.472 19.6465 102.449C17.5552 102.146 16.0139 101.066 15.0159 99.205C14.7525 98.6254 14.5845 98.0227 14.5088 97.3903C14.4725 96.3463 14.4561 95.3023 14.4561 94.2582ZM97.6291 270.458C97.5237 269.115 97.6423 267.794 97.9881 266.493C98.93 264.063 100.699 262.732 103.297 262.505C104.506 262.449 105.708 262.492 106.907 262.63C109.571 263.44 111.083 265.225 111.442 267.988C111.452 268.864 111.458 269.744 111.462 270.623C111.218 273.396 109.792 275.273 107.183 276.252C105.902 276.522 104.608 276.601 103.297 276.489C100.629 276.173 98.8378 274.753 97.9189 272.224C97.7378 271.651 97.6423 271.061 97.6291 270.458ZM185.001 271.776C184.998 271.061 185.021 270.343 185.067 269.632C185.453 267.524 186.678 266.193 188.753 265.647C189.793 265.561 190.837 265.541 191.885 265.591C194.052 266.016 195.363 267.31 195.814 269.48C196.09 271.018 195.959 272.514 195.422 273.969C194.73 275.273 193.666 276.097 192.23 276.446C191.13 276.548 190.027 276.551 188.924 276.459C186.427 275.889 185.123 274.332 185.001 271.776ZM144.432 330.403C144.554 327.353 146.109 325.518 149.089 324.896C150.163 324.847 151.233 324.863 152.304 324.942C154.886 325.439 156.375 326.984 156.766 329.579C156.819 330.676 156.822 331.769 156.78 332.866C156.236 335.465 154.659 336.97 152.044 337.382C150.94 337.424 149.844 337.401 148.747 337.312C146.386 336.769 144.976 335.307 144.521 332.925C144.442 332.086 144.409 331.246 144.432 330.403Z" fill="#FBAE77" stroke="#FBAE77" stroke-width="0.5"/>
<path fill-rule="evenodd" clip-rule="evenodd" d="M164.977 44.2147C164.927 44.218 164.878 44.218 164.828 44.2213C164.848 46.1249 164.822 48.0351 164.749 49.9519C164.773 50.0869 164.852 50.1396 164.983 50.1133C164.502 53.3935 162.648 55.4058 159.424 56.1535C157.342 56.1732 155.261 56.1699 153.186 56.1436C149.866 55.4915 148.002 53.4891 147.597 50.1396C147.567 48.1569 147.571 46.1743 147.61 44.1916C148.157 40.9541 150.054 39.0439 153.291 38.461C155.235 38.349 157.181 38.3391 159.124 38.4215C162.46 38.9517 164.41 40.8817 164.977 44.2147ZM74.4493 58.6894C74.5415 55.0666 76.1191 52.2869 79.1853 50.3471C81.4677 49.0824 83.8818 48.73 86.4309 49.2899C90.5478 50.5348 92.9125 53.2849 93.5251 57.5433C93.828 62.2464 91.875 65.6518 87.6627 67.7596C85.1564 68.7905 82.6632 68.751 80.1898 67.6444C77.1269 66.1821 75.2562 63.7844 74.5778 60.4448C74.4724 59.8652 74.4296 59.279 74.4493 58.6894ZM231.452 63.6296C231.33 62.2562 231.528 60.9356 232.041 59.6676C232.904 58.2185 234.176 57.3951 235.859 57.2074C236.567 57.1909 237.275 57.1876 237.983 57.1942C240.245 57.4676 241.695 58.6993 242.337 60.8895C242.495 61.9631 242.538 63.0401 242.469 64.1269C242.119 66.4554 240.799 67.8914 238.503 68.4348C237.479 68.5303 236.455 68.5303 235.43 68.4315C233.563 67.9836 232.295 66.8638 231.626 65.0722C231.518 64.5979 231.458 64.1171 231.452 63.6296ZM36.8479 164.739C36.8874 161.659 37.8063 158.863 39.6078 156.357C41.327 153.966 43.5863 152.29 46.3792 151.334C49.1325 150.412 51.9155 150.314 54.7314 151.031C59.4608 152.471 62.6752 155.507 64.3779 160.144C65.2935 162.848 65.4154 165.585 64.7402 168.355C63.4854 173.131 60.5806 176.467 56.0224 178.357C53.1834 179.395 50.2951 179.55 47.3573 178.818C41.7057 177.056 38.2772 173.276 37.0653 167.476C36.894 166.57 36.8215 165.658 36.8479 164.739ZM19.5407 263.872C19.5078 261.619 20.5453 260.108 22.6564 259.34C23.6246 259.248 24.5962 259.228 25.5711 259.284C27.5076 259.637 28.6472 260.783 28.993 262.723C29.0457 263.49 29.0523 264.257 29.0193 265.025C28.6999 266.935 27.6064 268.154 25.7456 268.68C24.3064 268.947 22.933 268.773 21.6156 268.157C20.1072 267.133 19.4156 265.707 19.5407 263.872Z" fill="#38BCC4" stroke="#38BCC4" stroke-width="0.5"/>
<path fill-rule="evenodd" clip-rule="evenodd" d="M59.375 287.916C59.4079 281.81 61.7035 276.731 66.2616 272.674C69.9272 269.614 74.1495 268.096 78.925 268.115C85.0179 268.185 90.0338 270.546 93.9728 275.2C96.8809 278.875 98.3465 283.061 98.3696 287.751C98.1687 293.083 96.242 297.691 92.5863 301.577C88.9766 305.127 84.6391 307.011 79.5837 307.229C72.6378 307.288 67.0916 304.531 62.9418 298.959C60.7023 295.616 59.5133 291.934 59.375 287.916Z" fill="#0B98A2" stroke="#0B98A2" stroke-width="0.5"/>
<path fill-rule="evenodd" clip-rule="evenodd" d="M218.308 248.064C218.305 245.156 218.321 242.244 218.368 239.336C218.664 236.063 220.176 233.513 222.903 231.689C224.516 230.747 226.252 230.26 228.119 230.223C233.498 230.217 238.879 230.223 244.257 230.236C247.729 230.269 250.443 231.719 252.405 234.587C253.486 236.227 254.042 238.032 254.082 239.995C254.069 245.156 254.062 250.313 254.062 255.474C253.799 259.967 251.572 263.043 247.389 264.703C246.477 264.989 245.542 265.154 244.587 265.193C239.097 265.21 233.61 265.206 228.119 265.187C222.899 264.884 219.688 262.19 218.486 257.108C218.414 256.564 218.364 256.021 218.335 255.474C218.315 253.004 218.305 250.534 218.308 248.064Z" fill="#C19269" stroke="#C19269" stroke-width="0.5"/>
<path fill-rule="evenodd" clip-rule="evenodd" d="M165.445 18.8399C165.425 17.7366 165.445 16.6366 165.511 15.5365C165.906 11.9137 167.78 9.38107 171.133 7.94512C172.203 7.56308 173.303 7.349 174.436 7.29631C178.938 7.28313 183.437 7.27984 187.939 7.29631C191.99 7.40499 194.826 9.3119 196.443 13.0138C196.67 13.679 196.831 14.3575 196.934 15.0524C197.032 20.21 197.062 25.3708 197.029 30.5317C196.799 34.7638 194.701 37.6126 190.735 39.0782C190.093 39.2659 189.438 39.3911 188.772 39.457C183.888 39.5327 179.004 39.5459 174.116 39.4998C170.708 39.2495 168.162 37.639 166.486 34.665C165.88 33.3509 165.544 31.9709 165.474 30.5218C165.455 26.6289 165.445 22.7361 165.445 18.8399Z" fill="#9CCAA6" stroke="#9CCAA6" stroke-width="0.5"/>
<path fill-rule="evenodd" clip-rule="evenodd" d="M52.4925 190.099C52.4893 186.664 54.1656 184.573 57.5151 183.828C58.7238 183.812 59.9325 183.805 61.1412 183.815C64.2634 184.312 65.9957 186.13 66.335 189.276C66.335 190.372 66.3251 191.472 66.3053 192.569C66.111 194.868 64.9583 196.482 62.8472 197.414C62.1918 197.681 61.5133 197.855 60.8118 197.934C59.9325 197.934 59.0564 197.934 58.1771 197.934C56.1351 197.806 54.5279 196.907 53.3587 195.237C52.98 194.555 52.7231 193.827 52.5881 193.06C52.5024 192.075 52.4728 191.087 52.4925 190.099ZM35.5049 280.669C35.7684 277.241 37.5633 275.103 40.8897 274.254C41.2684 274.175 41.6505 274.132 42.0391 274.125C43.5739 274.132 45.1119 274.138 46.65 274.138C49.6766 274.494 51.6659 276.118 52.6177 279.009C52.7264 279.503 52.7956 280.001 52.8285 280.505C52.8417 282.043 52.8384 283.577 52.8219 285.115C52.5914 288.32 50.9578 290.428 47.9146 291.445C47.3844 291.571 46.8476 291.663 46.3041 291.719C44.9044 291.725 43.5047 291.725 42.105 291.719C39.154 291.561 37.1088 290.128 35.966 287.414C35.7091 286.67 35.5642 285.903 35.5213 285.115C35.5181 283.633 35.5148 282.151 35.5049 280.669ZM93.539 313.933C93.5455 312.669 93.562 311.407 93.5917 310.146C94.0791 306.796 95.9959 304.863 99.3453 304.346C101.101 304.28 102.859 304.3 104.612 304.409C107.816 305.166 109.568 307.188 109.868 310.472C109.917 311.845 109.921 313.215 109.875 314.589C109.631 317.424 108.188 319.364 105.544 320.412C104.915 320.589 104.276 320.718 103.627 320.797C102.313 320.803 100.995 320.797 99.6813 320.777C97.2836 320.573 95.4854 319.43 94.2866 317.349C93.7432 316.275 93.4961 315.135 93.539 313.933Z" fill="#FB7669" stroke="#FB7669" stroke-width="0.5"/>
<path fill-rule="evenodd" clip-rule="evenodd" d="M150.872 28.06C150.641 25.9917 151.369 24.3549 153.052 23.1528C153.559 22.8498 154.103 22.6357 154.682 22.5138C155.654 22.448 156.625 22.4513 157.597 22.5237C159.774 23.0079 161.039 24.3615 161.388 26.5813C161.44 27.4442 161.434 28.307 161.368 29.1699C160.936 31.2481 159.695 32.5391 157.643 33.043C156.658 33.1386 155.677 33.1418 154.692 33.0529C152.762 32.5852 151.52 31.3996 150.967 29.4927C150.885 29.0184 150.852 28.5409 150.872 28.06ZM20.2266 166.385C20.3386 163.8 21.6197 162.084 24.0767 161.234C25.3348 161.053 26.6028 160.997 27.8806 161.066C30.7426 161.597 32.3334 163.313 32.6561 166.221C32.666 167.1 32.6627 167.979 32.6463 168.855C32.4025 170.904 31.3651 172.396 29.5306 173.325C28.895 173.585 28.233 173.72 27.548 173.736C26.3459 173.848 25.1602 173.773 23.9877 173.509C21.8668 172.794 20.635 171.329 20.2925 169.116C20.2299 168.207 20.2068 167.298 20.2266 166.385ZM115.259 274.082C115.332 271.914 116.396 270.502 118.454 269.836C119.327 269.741 120.206 269.724 121.086 269.787C122.979 270.199 124.106 271.358 124.465 273.268C124.623 274.457 124.501 275.61 124.096 276.733C123.5 278.047 122.498 278.827 121.086 279.081C120.206 279.111 119.327 279.084 118.451 279.002C116.794 278.571 115.767 277.52 115.371 275.853C115.282 275.264 115.246 274.674 115.259 274.082Z" fill="#37BBC3" stroke="#37BBC3" stroke-width="0.5"/>
<path fill-rule="evenodd" clip-rule="evenodd" d="M231.999 277.376C232.164 274.03 233.837 271.84 237.015 270.806C237.555 270.661 238.102 270.572 238.658 270.536C240.302 270.516 241.945 270.519 243.589 270.549C247.452 271.102 249.527 273.322 249.813 277.212C249.817 278.75 249.813 280.285 249.81 281.823C249.632 284.932 248.091 287.046 245.196 288.169C244.567 288.357 243.925 288.472 243.269 288.521C241.731 288.518 240.196 288.521 238.658 288.525C235.684 288.37 233.616 286.924 232.457 284.187C232.239 283.41 232.095 282.616 232.019 281.813C232.015 280.334 232.009 278.855 231.999 277.376Z" fill="#B2B0D2" stroke="#B2B0D2" stroke-width="0.5"/>
<path fill-rule="evenodd" clip-rule="evenodd" d="M0.251402 163.421C0.244815 162.268 0.261284 161.112 0.304099 159.96C0.8574 156.851 2.69186 155.046 5.81077 154.542C7.23683 154.489 8.6662 154.489 10.0923 154.539C13.4483 155.187 15.2498 157.216 15.4935 160.622C15.487 161.718 15.4804 162.818 15.4771 163.915C15.1247 167.403 13.2178 169.402 9.75304 169.909C8.55093 169.929 7.35211 169.929 6.14999 169.906C3.17929 169.639 1.26579 168.078 0.416075 165.226C0.29751 164.63 0.241522 164.027 0.251402 163.421Z" fill="#FB966E" stroke="#FB966E" stroke-width="0.5"/>
<path fill-rule="evenodd" clip-rule="evenodd" d="M183.041 290.549C183.038 289.505 183.061 288.461 183.114 287.417C183.529 284.983 184.922 283.409 187.293 282.694C187.632 282.592 187.982 282.513 188.334 282.467C189.296 282.447 190.257 282.441 191.219 282.444C193.877 282.698 195.639 284.081 196.512 286.594C196.61 286.973 196.673 287.358 196.706 287.75C196.712 288.847 196.712 289.947 196.706 291.043C196.419 293.747 194.977 295.503 192.382 296.306C192.006 296.418 191.624 296.474 191.232 296.478C190.244 296.478 189.256 296.471 188.268 296.461C185.021 295.819 183.278 293.849 183.041 290.549Z" fill="#FB806C" stroke="#FB806C" stroke-width="0.5"/>
<path fill-rule="evenodd" clip-rule="evenodd" d="M270.77 77.4635C270.833 75.2602 271.933 73.8868 274.067 73.3434C274.89 73.3302 275.717 73.3533 276.537 73.4224C278.236 73.8572 279.261 74.9308 279.613 76.6467C279.653 77.4108 279.653 78.1749 279.607 78.939C279.215 80.8228 278.078 81.9492 276.198 82.3247C275.45 82.3477 274.703 82.3312 273.958 82.2752C272.318 81.8734 271.291 80.8558 270.869 79.2189C270.783 78.636 270.75 78.053 270.77 77.4635Z" fill="#3CA1D8" stroke="#3CA1D8" stroke-width="0.5"/>
<path fill-rule="evenodd" clip-rule="evenodd" d="M46.3568 138.372C45.9945 141.932 44.407 144.814 41.5944 147.017C41.3375 147.001 41.1202 146.902 40.9423 146.721C40.6887 146.27 40.3824 145.858 40.0234 145.492C40.0663 145.203 40.1947 144.965 40.4121 144.774C40.669 144.936 40.9291 144.952 41.1959 144.824C41.3803 144.57 41.5681 144.313 41.7492 144.056C42.2992 143.8 42.8591 143.569 43.4289 143.368C43.531 143.526 43.6199 143.691 43.6956 143.865C44.0052 143.674 44.2555 143.421 44.4498 143.098C44.766 142.364 45.0427 141.613 45.2765 140.845C45.1151 140.635 44.9636 140.417 44.8319 140.19C44.8286 139.202 44.8451 138.217 44.8846 137.236C44.766 136.949 44.5717 136.728 44.3016 136.574C44.799 135.582 44.7496 134.624 44.1534 133.695C43.9657 133.633 43.7747 133.58 43.587 133.534C43.5672 133.386 43.6199 133.267 43.7418 133.178C44.1798 132.961 44.5421 132.658 44.8319 132.266C44.8681 132.025 44.8088 131.811 44.6475 131.624C44.7166 131.429 44.7627 131.232 44.7792 131.028C44.6112 130.678 44.4564 130.326 44.3148 129.97C44.4498 129.786 44.5421 129.585 44.5849 129.364C44.5289 128.801 44.5025 128.238 44.5124 127.671C44.6475 127.372 44.7001 127.062 44.6606 126.743C45.0855 126.173 45.069 125.62 44.6112 125.076C44.6969 124.839 44.7957 124.605 44.9076 124.381C44.9175 123.97 44.9142 123.558 44.9011 123.143C45.0723 122.672 45.2205 122.201 45.349 121.727C45.4642 121.859 45.5729 121.994 45.6816 122.129C45.7936 121.427 45.8792 120.726 45.9385 120.027C46.0439 120.143 46.0966 120.281 46.0999 120.439C46.1559 126.252 46.169 132.065 46.146 137.875C46.1361 138.079 46.2086 138.243 46.3568 138.372Z" fill="#F99C76" stroke="#F99C76" stroke-width="0.5"/>
<path fill-rule="evenodd" clip-rule="evenodd" d="M227.757 278.7C227.869 282.442 227.865 286.18 227.743 289.921C227.493 290.04 227.286 290.208 227.118 290.432C226.795 290.326 226.637 290.096 226.637 289.747C226.627 286.229 226.627 282.712 226.643 279.194C226.584 278.743 226.739 278.394 227.108 278.15C227.272 278.397 227.49 278.582 227.757 278.7ZM200.786 278.625C200.912 278.783 200.994 278.957 201.03 279.155C201.132 279.817 201.208 280.485 201.267 281.154C201.215 284.368 201.241 287.576 201.346 290.778C201.409 291.048 201.557 291.258 201.791 291.41C201.87 291.044 201.975 290.685 202.107 290.339C202.512 290.837 202.674 291.403 202.598 292.042C202.693 292.349 202.786 292.658 202.881 292.961C202.782 293.356 202.572 293.663 202.239 293.88C201.396 292.648 200.915 291.288 200.8 289.796C200.721 286.074 200.717 282.35 200.786 278.625Z" fill="#EF916F"/>
<path fill-rule="evenodd" clip-rule="evenodd" d="M184.254 162.657C183.951 162.7 183.655 162.664 183.368 162.548C183.029 162.707 182.68 162.848 182.327 162.97C182.262 162.759 182.215 162.539 182.186 162.308C182.117 162.15 182.005 162.025 181.853 161.936C181.369 161.827 180.878 161.748 180.384 161.695C179.811 161.277 179.228 161.277 178.635 161.692C178.431 161.672 178.24 161.6 178.062 161.475C177.861 161.607 177.644 161.709 177.417 161.788C176.738 161.821 176.073 161.926 175.418 162.101C174.769 161.936 174.114 161.788 173.452 161.653C172.678 161.63 171.907 161.672 171.143 161.781C170.675 161.742 170.234 161.613 169.822 161.399C169.094 161.481 168.37 161.468 167.648 161.363C168.557 160.991 169.503 160.786 170.484 160.757C173.557 160.724 176.633 160.727 179.706 160.767C181.441 160.869 182.96 161.501 184.254 162.657Z" fill="#F3786C"/>
<path fill-rule="evenodd" clip-rule="evenodd" d="M185.89 165.023C186.263 165.936 186.447 166.884 186.444 167.869C186.447 170.724 186.457 173.577 186.473 176.432C186.473 177.064 186.407 177.69 186.276 178.309C186.006 178.217 185.854 178.033 185.825 177.756C185.966 177.437 186.058 177.104 186.108 176.761C186.104 173.797 186.108 170.833 186.118 167.869C186.025 167.368 185.834 166.907 185.548 166.486C185.601 166.288 185.666 166.094 185.739 165.903C185.719 165.636 185.716 165.373 185.732 165.112C185.785 165.083 185.838 165.053 185.89 165.023Z" fill="#E3736A"/>
<path fill-rule="evenodd" clip-rule="evenodd" d="M70.9525 63.6181C71.015 63.6116 71.0776 63.6017 71.1402 63.5918C71.2028 70.4224 71.1995 77.2531 71.127 84.0837C71.0644 84.0705 70.9986 84.0574 70.936 84.0442C70.8438 77.2399 70.8504 70.4323 70.9525 63.6181Z" fill="#719284"/>
<path fill-rule="evenodd" clip-rule="evenodd" d="M164.977 44.2148C165.086 46.181 165.089 48.1472 164.984 50.1134C164.852 50.1398 164.773 50.0871 164.75 49.9521C164.822 48.0353 164.849 46.1251 164.829 44.2214C164.878 44.2181 164.928 44.2181 164.977 44.2148Z" fill="#33A4AD"/>
<path fill-rule="evenodd" clip-rule="evenodd" d="M201.297 19.4974C201.301 18.4731 201.33 17.4489 201.386 16.4246C201.9 13.4078 203.675 11.7117 206.712 11.3395C207.914 11.3066 209.119 11.3165 210.322 11.3659C213.253 11.9488 214.873 13.7273 215.183 16.698C215.196 17.686 215.196 18.674 215.186 19.6621C215.005 23.1762 213.17 25.1358 209.676 25.5409C208.688 25.5706 207.7 25.5771 206.712 25.5508C204.048 25.2906 202.322 23.881 201.538 21.322C201.353 20.7292 201.274 20.1199 201.297 19.4974ZM171.008 53.4201C171.021 52.2706 171.04 51.1212 171.06 49.9718C171.376 47.7685 172.555 46.237 174.604 45.3807C175.19 45.1798 175.793 45.0744 176.412 45.0613C177.509 45.0678 178.609 45.0777 179.706 45.0909C181.965 45.384 183.523 46.5861 184.376 48.7038C184.583 49.3263 184.695 49.9652 184.715 50.6206C184.804 52.1554 184.685 53.6704 184.353 55.1656C183.477 57.4447 181.817 58.6698 179.376 58.8411C178.388 58.851 177.4 58.8609 176.412 58.8674C173.715 58.6303 171.972 57.224 171.182 54.6419C171.07 54.2401 171.014 53.835 171.008 53.4201ZM70.9522 63.6166C70.8501 70.4308 70.8435 77.2384 70.9357 84.0427C70.9126 85.0669 70.7282 86.0582 70.3824 87.0199C68.538 91.6505 65.126 94.0943 60.1529 94.3512C54.116 94.3677 48.0758 94.3742 42.0389 94.3775C40.5996 94.4335 39.1933 94.2458 37.8199 93.8078C33.3705 92.0589 30.8905 88.805 30.3833 84.0459C30.3471 77.2384 30.3504 70.4341 30.3833 63.6298C30.8312 59.9279 32.6492 57.1087 35.8406 55.1689C37.6684 54.1578 39.6248 53.6802 41.7095 53.7329C47.8584 53.7362 54.004 53.7395 60.1529 53.7428C65.7057 54.0392 69.2396 56.8584 70.7545 62.2037C70.8665 62.6681 70.9324 63.1391 70.9522 63.6166ZM96.2525 77.7917C96.2229 75.697 97.201 74.3335 99.1903 73.7012C99.984 73.632 100.781 73.6254 101.578 73.6781C103.268 74.0042 104.292 75.012 104.657 76.6982C104.911 78.0617 104.727 79.3561 104.104 80.5812C103.432 81.5759 102.5 82.1423 101.305 82.284C100.142 82.4816 99.0487 82.2938 98.0244 81.7274C96.7235 80.7426 96.1339 79.4285 96.2525 77.7917ZM68.9135 103.151C68.9135 102.219 68.9267 101.291 68.953 100.362C69.3449 97.8917 70.7447 96.347 73.1588 95.7246C74.4169 95.6159 75.6783 95.5862 76.9462 95.6356C79.5382 96.0177 81.0927 97.4997 81.6065 100.082C81.7086 101.267 81.7349 102.456 81.6888 103.645C81.3463 106.336 79.8577 107.996 77.2163 108.625C76.034 108.753 74.8516 108.77 73.666 108.681C70.6294 108.078 69.0452 106.234 68.9135 103.151ZM52.7788 133.122C52.7788 132.081 52.7953 131.044 52.8216 130.003C53.1312 127.582 54.419 125.912 56.6783 125C57.1756 124.859 57.6795 124.756 58.1933 124.694C59.2867 124.697 60.3768 124.691 61.4703 124.674C64.5991 124.934 66.4895 126.601 67.1482 129.677C67.2174 131.096 67.2239 132.516 67.168 133.939C66.7036 137.057 64.9119 138.843 61.7897 139.294C60.5876 139.32 59.3855 139.32 58.1867 139.294C55.5289 138.948 53.8031 137.499 53.0094 134.946C52.8447 134.347 52.769 133.741 52.7788 133.122ZM233.883 192.075C233.886 185.323 233.89 178.572 233.896 171.82C234.038 167.947 235.556 164.726 238.454 162.16C240.723 160.309 243.319 159.288 246.233 159.091C254.467 159.084 262.701 159.084 270.934 159.091C275.861 159.272 279.576 161.482 282.086 165.724C283.048 167.529 283.585 169.449 283.69 171.491C283.743 180.057 283.706 188.62 283.578 197.18C282.952 201.412 280.805 204.629 277.139 206.826C275.302 207.821 273.342 208.354 271.254 208.43C263.023 208.463 254.793 208.466 246.563 208.447C241.702 208.17 238.033 205.944 235.549 201.761C234.772 200.384 234.265 198.915 234.031 197.351C233.906 195.595 233.857 193.837 233.883 192.075ZM195.237 205.907C195.224 205.193 195.241 204.475 195.287 203.763C195.748 201.609 197.049 200.272 199.193 199.752C200.27 199.676 201.347 199.656 202.427 199.696C204.555 200.131 205.889 201.399 206.432 203.496C206.527 204.573 206.547 205.65 206.495 206.731C206.165 209.049 204.864 210.472 202.592 211.002C201.495 211.111 200.395 211.118 199.295 211.032C196.571 210.406 195.218 208.7 195.237 205.907ZM76.2052 230.279C76.1888 227.888 77.2525 226.165 79.39 225.102C79.7918 224.96 80.2035 224.851 80.625 224.776C81.7613 224.713 82.8975 224.733 84.0338 224.832C86.4248 225.375 87.7982 226.86 88.1506 229.291C88.2395 230.315 88.2626 231.339 88.2132 232.367C87.9267 234.076 87.0506 235.394 85.5817 236.316C85.0449 236.609 84.4751 236.8 83.8691 236.892C82.7691 236.932 81.6691 236.925 80.5691 236.879C78.2669 236.372 76.8573 234.966 76.3403 232.663C76.2151 231.873 76.169 231.079 76.2052 230.279ZM11.8246 236.866C11.8246 235.713 11.8378 234.56 11.8675 233.404C12.2133 231.007 13.5076 229.347 15.7537 228.428C16.4816 228.184 17.2292 228.053 17.9933 228.036C19.0406 228.049 20.0879 228.076 21.132 228.115C23.5955 228.369 25.2916 229.637 26.2237 231.922C26.4542 232.729 26.5761 233.556 26.5827 234.396C26.6815 235.93 26.5794 237.445 26.2764 238.944C25.3575 241.414 23.5823 242.794 20.9607 243.081C19.8607 243.1 18.764 243.1 17.6672 243.087C14.7624 242.883 12.8819 241.394 12.0321 238.615C11.8872 238.042 11.8181 237.459 11.8246 236.866ZM32.007 256.297C32.007 250.863 32.0103 245.429 32.0234 239.995C32.3034 235.433 34.3816 231.942 38.258 229.521C40.0463 228.517 41.9631 227.967 44.0149 227.875C49.8345 227.845 55.6507 227.842 61.4703 227.865C66.3347 228.079 69.9674 230.309 72.3618 234.554C73.139 236.174 73.5737 237.887 73.6627 239.685C73.7088 245.165 73.7252 250.649 73.722 256.133C73.6034 261.158 71.3704 264.929 67.0263 267.446C65.3862 268.292 63.644 268.756 61.7996 268.842C55.9801 268.849 50.1638 268.859 44.3443 268.865C38.6762 268.48 34.7965 265.647 32.7118 260.368C32.2705 259.047 32.0333 257.69 32.007 256.297ZM258.963 247.734C258.959 246.806 258.969 245.873 258.989 244.945C259.476 242.099 261.15 240.502 264.018 240.156C265.115 240.156 266.215 240.166 267.312 240.179C269.795 240.574 271.339 241.994 271.945 244.434C272.054 245.696 272.087 246.96 272.048 248.228C271.682 251.252 269.992 252.958 266.982 253.346C265.886 253.359 264.786 253.353 263.689 253.327C260.623 252.721 259.048 250.856 258.963 247.734ZM156.552 288.573C156.562 286.215 156.576 283.86 156.592 281.502C156.8 278.62 158.183 276.509 160.742 275.175C161.75 274.747 162.8 274.507 163.894 274.448C166.42 274.431 168.946 274.441 171.472 274.471C175.049 274.678 177.384 276.486 178.48 279.892C178.599 280.537 178.675 281.186 178.711 281.841C178.737 284.354 178.741 286.867 178.724 289.38C178.602 292.357 177.222 294.544 174.587 295.941C174.018 296.217 173.418 296.402 172.793 296.491C171.587 296.652 170.382 296.715 169.166 296.678C167.322 296.685 165.481 296.675 163.637 296.645C159.467 296.191 157.119 293.882 156.589 289.713C156.556 289.334 156.546 288.955 156.552 288.573ZM160.195 316.568C160.195 314.213 160.208 311.858 160.228 309.503C160.6 305.719 162.596 303.259 166.212 302.122C166.963 301.902 167.727 301.783 168.508 301.763C173.886 301.773 179.268 301.78 184.646 301.783C187.748 301.859 190.119 303.209 191.753 305.831C192.412 307.079 192.771 308.406 192.83 309.816C192.846 313.877 192.833 317.941 192.794 322.002C192.57 324.979 191.183 327.238 188.628 328.773C187.383 329.432 186.055 329.764 184.646 329.771C179.156 329.771 173.669 329.768 168.178 329.758C164.671 329.541 162.207 327.821 160.791 324.6C160.491 323.754 160.304 322.884 160.228 321.989C160.215 320.181 160.205 318.376 160.195 316.568ZM198.722 310.639C198.62 309.375 198.738 308.13 199.081 306.911C199.852 304.912 201.294 303.723 203.415 303.344C204.733 303.242 206.053 303.232 207.374 303.315C210.213 303.759 211.856 305.403 212.308 308.242C212.387 309.421 212.4 310.597 212.35 311.776C212.011 314.819 210.335 316.594 207.311 317.111C206.066 317.2 204.825 317.187 203.58 317.068C200.757 316.525 199.153 314.825 198.768 311.97C198.732 311.525 198.715 311.084 198.722 310.639Z" fill="#9BCAA6" stroke="#9BCAA6" stroke-width="0.5"/>
<path fill-rule="evenodd" clip-rule="evenodd" d="M99.2889 27.073C99.908 18.9315 103.669 12.6805 110.569 8.32C114.722 5.92236 119.195 4.86516 123.983 5.1484C131.114 5.75769 136.811 8.93588 141.08 14.683C143.306 17.8776 144.683 21.4082 145.206 25.2714C145.539 28.2586 145.325 31.203 144.567 34.1078C142.637 40.9286 138.491 45.8918 132.128 49.0008C128.62 50.6212 124.938 51.326 121.082 51.1185C113.24 50.5257 107.154 46.949 102.826 40.3917C100.738 37.0686 99.5721 33.4458 99.3251 29.5266C99.2954 28.7098 99.2856 27.8898 99.2889 27.073ZM53.7469 39.9175C54.0367 36.0938 56.0819 33.9431 59.8859 33.4722C61.0485 33.4919 62.2144 33.4952 63.377 33.4853C66.8055 33.8707 68.8309 35.7578 69.4567 39.1435C69.5028 40.5531 69.516 41.9627 69.4896 43.3756C69.0417 46.9589 67.0261 48.9877 63.4494 49.4586C62.3494 49.4586 61.2494 49.4652 60.1527 49.4784C56.5529 49.182 54.4319 47.2553 53.7963 43.6984C53.7568 42.437 53.737 41.1789 53.7469 39.9175ZM76.4388 81.4151C76.5014 78.1611 78.0757 76.0303 81.1649 75.0192C81.6194 74.9039 82.0805 74.8282 82.5482 74.7985C83.8656 74.782 85.183 74.7787 86.5003 74.782C89.8267 75.1641 91.8325 76.992 92.5208 80.2755C92.5867 81.807 92.5932 83.3385 92.5471 84.8732C92.3891 87.1062 91.3813 88.8451 89.5303 90.0901C88.4863 90.6763 87.3665 90.9793 86.171 91.0023C84.8536 90.999 83.5362 90.9925 82.2188 90.9859C78.8793 90.4721 76.9625 88.5454 76.4685 85.2026C76.4454 83.9412 76.4355 82.6798 76.4388 81.4151ZM48.1447 110.068C48.1348 108.823 48.1645 107.578 48.2336 106.337C48.7178 103.514 50.2887 101.594 52.9499 100.57C53.4801 100.435 54.0169 100.323 54.5571 100.241C55.7658 100.237 56.9712 100.227 58.1766 100.221C61.3515 100.412 63.4922 101.993 64.5988 104.963C64.7701 105.5 64.8788 106.047 64.9249 106.61C64.994 108.253 64.9677 109.897 64.8393 111.537C64.0389 114.896 61.9245 116.8 58.4993 117.248C57.2939 117.268 56.0885 117.274 54.8831 117.271C51.4019 116.938 49.2118 115.084 48.3094 111.712C48.1776 111.171 48.1216 110.625 48.1447 110.068ZM167.648 161.364C168.369 161.469 169.094 161.482 169.822 161.4C170.233 161.614 170.675 161.743 171.142 161.782C171.906 161.673 172.677 161.631 173.451 161.654C174.113 161.789 174.768 161.937 175.417 162.102C176.073 161.927 176.738 161.822 177.416 161.789C177.644 161.71 177.861 161.608 178.062 161.476C178.24 161.601 178.431 161.673 178.635 161.693C179.228 161.278 179.811 161.278 180.384 161.696C180.878 161.749 181.369 161.828 181.853 161.937C182.004 162.026 182.116 162.151 182.185 162.309C182.215 162.54 182.261 162.76 182.327 162.971C182.679 162.849 183.028 162.708 183.368 162.549C183.654 162.665 183.951 162.701 184.254 162.658C184.968 163.33 185.512 164.12 185.89 165.023C185.838 165.053 185.785 165.082 185.732 165.112C185.716 165.372 185.719 165.635 185.739 165.902C185.666 166.093 185.601 166.288 185.548 166.485C185.834 166.907 186.025 167.368 186.118 167.868C186.108 170.833 186.104 173.797 186.108 176.761C186.058 177.103 185.966 177.436 185.825 177.755C185.854 178.032 186.006 178.216 186.276 178.309C185.452 181.49 183.42 183.367 180.18 183.937C176.56 183.973 172.941 183.967 169.321 183.921C168.573 183.763 167.852 183.522 167.164 183.199C164.881 181.941 163.607 180.015 163.343 177.419C163.287 174.347 163.271 171.274 163.297 168.198C163.287 164.983 164.737 162.708 167.648 161.364ZM78.0987 253.004C78.0954 251.522 78.1086 250.04 78.135 248.558C78.7772 244.741 81.0167 242.59 84.8536 242.103C86.5003 242.07 88.1471 242.064 89.7938 242.08C93.2256 242.248 95.5178 243.944 96.6706 247.175C96.8418 247.732 96.9472 248.305 96.9933 248.888C96.9966 250.643 96.9999 252.402 97.0065 254.157C96.9801 257.747 95.2939 260.174 91.9477 261.442C91.3483 261.63 90.739 261.758 90.1166 261.828C88.4731 261.837 86.8264 261.844 85.183 261.847C82.4033 261.646 80.3185 260.346 78.9221 257.945C78.2305 256.367 77.9571 254.724 78.0987 253.004ZM49.0669 302.077C48.8791 300.289 49.4884 298.846 50.898 297.756C51.3262 297.509 51.7807 297.324 52.2582 297.196C53.0223 297.137 53.7897 297.12 54.5571 297.143C56.3784 297.436 57.5179 298.481 57.9724 300.272C58.0547 301.145 58.058 302.021 57.9856 302.897C57.5838 304.728 56.4607 305.815 54.6164 306.154C53.5229 306.332 52.4558 306.243 51.4151 305.884C49.8606 305.087 49.0767 303.819 49.0669 302.077Z" fill="#FB7467" stroke="#FB7467" stroke-width="0.5"/>
<path fill-rule="evenodd" clip-rule="evenodd" d="M210.934 39.2614C211.256 33.9524 213.634 29.8323 218.071 26.9011C220.86 25.2148 223.88 24.4738 227.131 24.6747C231.202 24.9711 234.623 26.6113 237.403 29.5984C240.16 32.8063 241.431 36.5213 241.214 40.7402C240.858 44.8867 239.142 48.358 236.066 51.1574C232.911 53.8218 229.272 55.0272 225.155 54.7802C220.168 54.3883 216.259 52.1356 213.427 48.0155C211.684 45.3544 210.855 42.4363 210.934 39.2614ZM191.384 182.524C191.393 178.186 191.397 173.852 191.4 169.515C191.502 165.266 193.422 162.131 197.157 160.118C198.517 159.489 199.947 159.147 201.442 159.091C207.149 159.081 212.86 159.078 218.568 159.081C221.779 159.114 224.447 160.329 226.578 162.727C228.069 164.62 228.847 166.774 228.913 169.185C228.942 174.234 228.952 179.286 228.942 184.335C229.051 187.839 227.806 190.767 225.204 193.115C223.254 194.634 221.045 195.408 218.568 195.434C212.86 195.427 207.149 195.421 201.442 195.408C197.605 195.256 194.7 193.534 192.724 190.24C192.151 189.124 191.772 187.948 191.591 186.706C191.403 185.317 191.334 183.923 191.384 182.524ZM255.527 223.363C255.646 219.41 257.319 216.292 260.546 214.012C262.503 212.721 264.647 212.129 266.982 212.234C270.852 212.376 273.872 214.055 276.042 217.266C277.208 219.19 277.817 221.278 277.876 223.527C277.544 228.55 275.061 232.047 270.427 234.017C267.568 234.923 264.752 234.801 261.982 233.645C258.537 231.972 256.446 229.255 255.705 225.49C255.576 224.789 255.517 224.077 255.527 223.363ZM200.572 260.579C200.566 259.535 200.582 258.491 200.618 257.45C201.033 255.036 202.407 253.448 204.739 252.691C205.17 252.559 205.611 252.477 206.063 252.444C207.044 252.444 208.025 252.444 209.007 252.444C211.78 252.767 213.552 254.265 214.326 256.946C214.448 258.316 214.487 259.693 214.438 261.076C214.056 264.327 212.251 266.171 209.017 266.612C207.917 266.632 206.82 266.616 205.72 266.566C202.397 265.95 200.681 263.955 200.572 260.579Z" fill="#3DA4DB" stroke="#3DA4DB" stroke-width="0.5"/>
<path fill-rule="evenodd" clip-rule="evenodd" d="M192.016 49.4692C191.944 46.818 193.109 44.9539 195.514 43.8736C195.942 43.7155 196.38 43.6036 196.828 43.5443C197.928 43.5113 199.028 43.4916 200.124 43.4883C202.295 43.6826 203.856 44.7629 204.808 46.7258C205.068 47.3416 205.219 47.9806 205.262 48.6458C205.279 49.6339 205.295 50.6219 205.312 51.61C205.045 54.8244 203.316 56.6687 200.124 57.1397C199.136 57.143 198.148 57.1331 197.16 57.1166C195.178 56.9487 193.689 56.0001 192.694 54.2744C192.378 53.6387 192.171 52.9734 192.069 52.2686C192.026 51.3366 192.006 50.4046 192.016 49.4692ZM45.9741 190.037C45.6809 190.097 45.5261 190.278 45.5163 190.584C45.4965 191.098 45.5459 191.599 45.6612 192.086C45.5261 192.313 45.4076 192.55 45.2989 192.791C45.121 192.916 44.9663 193.067 44.8411 193.242C44.7917 195.106 44.7884 196.973 44.8279 198.838C45.0124 199.598 45.1968 200.359 45.3812 201.117C45.2561 201.588 45.0848 202.039 44.8609 202.474C44.7983 204.328 44.7884 206.185 44.8312 208.043C44.8181 208.385 44.7621 208.718 44.6567 209.044C44.795 209.841 44.9366 210.638 45.0782 211.438C45.233 211.382 45.3681 211.303 45.4899 211.195C45.5261 211.419 45.592 211.636 45.6875 211.85C45.7699 211.86 45.8555 211.873 45.9411 211.886C44.6073 217.143 41.35 220.568 36.1727 222.165C35.0694 222.429 33.9529 222.57 32.8167 222.59C27.1091 222.59 21.3982 222.59 15.6907 222.587C10.5035 222.438 6.57768 220.14 3.91327 215.687C2.77373 213.619 2.18749 211.399 2.16114 209.037C2.16114 203.768 2.15126 198.498 2.13479 193.229C2.12491 187.475 4.65758 183.243 9.72951 180.529C11.3038 179.778 12.9637 179.34 14.7026 179.212C20.9602 179.189 27.2178 179.185 33.4754 179.209C37.9314 179.492 41.439 181.468 43.9881 185.14C44.9728 186.642 45.6348 188.275 45.9741 190.037ZM227.757 278.701C227.49 278.582 227.272 278.398 227.108 278.151C226.739 278.394 226.584 278.744 226.643 279.195C226.627 282.712 226.627 286.23 226.637 289.747C226.637 290.096 226.795 290.327 227.118 290.432C227.286 290.208 227.493 290.04 227.743 289.921C227.645 290.817 227.424 291.68 227.078 292.51C225.412 295.899 222.685 297.549 218.897 297.454C215.824 297.444 212.748 297.447 209.676 297.46C206.57 297.562 204.093 296.37 202.239 293.88C202.572 293.663 202.782 293.357 202.881 292.961C202.786 292.658 202.693 292.349 202.598 292.043C202.674 291.404 202.512 290.837 202.107 290.34C201.975 290.686 201.87 291.045 201.791 291.41C201.557 291.259 201.409 291.048 201.346 290.778C201.241 287.577 201.215 284.369 201.267 281.154C201.208 280.486 201.132 279.817 201.03 279.155C200.994 278.958 200.912 278.783 200.786 278.625C201.099 275.315 202.746 272.927 205.73 271.462C206.678 271.08 207.663 270.862 208.687 270.816C212.09 270.777 215.495 270.77 218.897 270.796C221.96 270.671 224.42 271.824 226.284 274.251C227.161 275.605 227.651 277.087 227.757 278.701Z" fill="#FC926C" stroke="#FC926C" stroke-width="0.5"/>
<path fill-rule="evenodd" clip-rule="evenodd" d="M45.9746 190.037C46.1623 191.094 46.2546 192.155 46.2513 193.228C46.2513 198.277 46.2578 203.33 46.271 208.378C46.304 209.561 46.192 210.73 45.9417 211.886C45.856 211.873 45.7704 211.86 45.6881 211.85C45.5926 211.636 45.5267 211.418 45.4905 211.194C45.3686 211.303 45.2336 211.382 45.0788 211.438C44.9372 210.638 44.7956 209.841 44.6572 209.044C44.7626 208.718 44.8186 208.385 44.8318 208.042C44.789 206.185 44.7988 204.327 44.8614 202.473C45.0854 202.038 45.2566 201.587 45.3818 201.116C45.1973 200.359 45.0129 199.598 44.8285 198.837C44.789 196.973 44.7923 195.106 44.8417 193.242C44.9668 193.067 45.1216 192.916 45.2994 192.79C45.4081 192.55 45.5267 192.313 45.6617 192.086C45.5465 191.598 45.4971 191.098 45.5168 190.584C45.5267 190.278 45.6815 190.096 45.9746 190.037Z" fill="#F79976"/>
<path fill-rule="evenodd" clip-rule="evenodd" d="M200.849 35.6357C200.767 33.742 201.643 32.5695 203.474 32.1216C205.503 31.7955 206.837 32.5958 207.479 34.5225C207.654 35.5204 207.529 36.4755 207.11 37.3878C206.633 38.1618 205.948 38.6492 205.052 38.8435C203.715 39.1136 202.542 38.7974 201.535 37.8917C201.001 37.233 200.77 36.4821 200.849 35.6357ZM244.287 48.8095C244.205 46.5799 245.071 44.8244 246.892 43.54C247.702 43.046 248.578 42.7759 249.527 42.7364C251.029 42.6244 252.514 42.7133 253.989 42.9966C255.61 43.5729 256.723 44.6697 257.326 46.2867C257.56 46.9421 257.678 47.6173 257.681 48.3155C257.681 49.3036 257.665 50.2916 257.639 51.2796C257.22 54.2866 255.504 55.9959 252.491 56.4076C251.503 56.4207 250.515 56.424 249.527 56.4141C246.625 56.0881 244.909 54.4875 244.376 51.6123C244.297 50.6802 244.267 49.7449 244.287 48.8095ZM179.57 196.357C179.551 195.658 179.57 194.96 179.626 194.265C180.097 192.256 181.332 190.992 183.335 190.471C184.32 190.392 185.308 190.376 186.296 190.418C188.42 190.751 189.741 191.963 190.254 194.048C190.347 194.98 190.373 195.915 190.333 196.851C190.123 199.205 188.874 200.671 186.582 201.251C185.499 201.359 184.418 201.359 183.335 201.251C180.815 200.592 179.557 198.958 179.57 196.357ZM214.017 205.908C214.155 202.091 216.108 199.9 219.882 199.337C221.42 199.321 222.958 199.314 224.497 199.321C227.25 199.591 229.124 201.017 230.125 203.592C230.319 204.3 230.435 205.022 230.471 205.756C230.438 207.067 230.425 208.381 230.435 209.695C230.016 213.252 228.037 215.278 224.497 215.778C222.741 215.821 220.989 215.801 219.237 215.719C216.582 215.169 214.906 213.585 214.204 210.963C214.139 210.653 214.092 210.341 214.069 210.024C214.046 208.654 214.03 207.281 214.017 205.908ZM51.794 213.812C51.7973 212.333 51.8105 210.854 51.8368 209.376C52.1266 206.293 53.7108 204.185 56.5893 203.055C57.215 202.861 57.854 202.733 58.5061 202.667C60.3735 202.66 62.2376 202.65 64.105 202.634C67.5894 202.779 69.908 204.495 71.0542 207.785C71.1991 208.414 71.2946 209.05 71.3374 209.695C71.3572 211.454 71.3572 213.209 71.344 214.968C71.3078 218.555 69.6116 220.985 66.2589 222.256C65.5508 222.428 64.8328 222.543 64.105 222.602C62.3496 222.609 60.5974 222.612 58.8453 222.609C55.9701 222.434 53.8623 221.077 52.5219 218.538C51.9093 217.02 51.6656 215.445 51.794 213.812ZM253.999 269.142C253.986 268.444 254.006 267.746 254.059 267.051C254.457 265.127 255.597 263.873 257.481 263.29C258.557 263.191 259.641 263.168 260.728 263.214C262.691 263.593 263.936 264.745 264.463 266.679C264.637 267.979 264.627 269.277 264.433 270.575C263.903 272.268 262.78 273.341 261.064 273.796C260.056 273.927 259.045 273.957 258.027 273.885C256.028 273.542 254.737 272.399 254.151 270.453C254.042 270.025 253.993 269.587 253.999 269.142ZM114.248 294.502C114.439 289.394 116.767 285.596 121.233 283.106C122.834 282.263 124.54 281.789 126.351 281.687C131.183 281.677 136.011 281.674 140.843 281.68C146.346 282.036 150.199 284.743 152.399 289.795C152.999 291.251 153.305 292.763 153.318 294.337C153.364 299.719 153.335 305.097 153.233 310.475C152.584 315.349 150.041 318.85 145.612 320.981C143.978 321.653 142.279 322.002 140.513 322.032C135.846 322.035 131.176 322.032 126.509 322.022C122.61 321.762 119.432 320.112 116.972 317.072C115.312 314.809 114.406 312.283 114.254 309.487C114.264 304.491 114.261 299.498 114.248 294.502ZM101.983 288.883C101.871 287.605 102.085 286.393 102.632 285.241C103.221 284.328 104.045 283.722 105.095 283.429C106.031 283.32 106.966 283.294 107.908 283.347C110.052 283.686 111.234 284.934 111.462 287.091C111.577 288.182 111.501 289.259 111.238 290.322C110.556 291.946 109.337 292.822 107.579 292.947C106.367 293.082 105.211 292.898 104.111 292.397C102.783 291.603 102.075 290.431 101.983 288.883Z" fill="#B4B2D4" stroke="#B4B2D4" stroke-width="0.5"/>
<path fill-rule="evenodd" clip-rule="evenodd" d="M148.003 6.98205C147.832 3.95206 149.126 1.82449 151.886 0.596026C152.258 0.474168 152.637 0.385246 153.025 0.329257C154.234 0.260094 155.443 0.23704 156.652 0.2568C160.044 0.579559 161.905 2.43707 162.234 5.82934C162.217 7.01827 162.224 8.21051 162.25 9.39945C161.858 12.5381 160.103 14.3594 156.981 14.8666C155.568 14.9226 154.158 14.9061 152.749 14.8106C150.068 14.142 148.507 12.4426 148.069 9.71562C148.013 8.80662 147.99 7.89434 148.003 6.98205ZM46.3568 138.371C46.2086 138.243 46.1361 138.078 46.146 137.874C46.1691 132.064 46.1559 126.251 46.0999 120.438C46.0966 120.28 46.0439 120.142 45.9385 120.027C45.8792 120.725 45.7936 121.427 45.6816 122.128C45.573 121.993 45.4643 121.858 45.349 121.726C45.2205 122.2 45.0723 122.671 44.9011 123.142C44.9143 123.557 44.9176 123.969 44.9077 124.381C44.7957 124.605 44.6969 124.839 44.6113 125.076C45.0691 125.619 45.0855 126.172 44.6607 126.742C44.7002 127.062 44.6475 127.371 44.5125 127.671C44.5026 128.237 44.5289 128.801 44.5849 129.364C44.5421 129.584 44.4499 129.785 44.3149 129.97C44.4565 130.325 44.6113 130.678 44.7792 131.027C44.7628 131.231 44.7167 131.429 44.6475 131.623C44.8089 131.811 44.8682 132.025 44.8319 132.265C44.5421 132.657 44.1798 132.96 43.7418 133.178C43.6199 133.267 43.5672 133.385 43.587 133.533C43.7747 133.579 43.9657 133.632 44.1535 133.695C44.7496 134.623 44.799 135.582 44.3017 136.573C44.5717 136.728 44.7661 136.949 44.8846 137.235C44.8451 138.217 44.8286 139.201 44.8319 140.189C44.9637 140.417 45.1152 140.634 45.2765 140.845C45.0427 141.612 44.7661 142.363 44.4499 143.097C44.2556 143.42 44.0053 143.674 43.6957 143.865C43.6199 143.69 43.531 143.526 43.4289 143.368C42.8591 143.568 42.2993 143.799 41.7492 144.056C41.5681 144.313 41.3804 144.57 41.1959 144.823C40.9292 144.952 40.669 144.935 40.4121 144.774C40.1947 144.965 40.0663 145.202 40.0235 145.492C40.3825 145.857 40.6888 146.269 40.9424 146.72C41.1202 146.901 41.3376 147 41.5945 147.017C39.8522 148.265 37.9157 148.993 35.7815 149.204C29.1946 149.243 22.6076 149.253 16.0207 149.237C11.3045 148.94 7.88588 146.674 5.7616 142.445C5.10291 141 4.73404 139.485 4.64841 137.897C4.60889 131.531 4.60559 125.161 4.62865 118.795C4.91847 114.965 6.6146 111.918 9.71704 109.656C11.3341 108.592 13.106 107.95 15.0327 107.732C21.837 107.604 28.6446 107.587 35.4521 107.683C40.0663 108.098 43.3795 110.397 45.3918 114.576C46.1098 116.348 46.4523 118.196 46.4128 120.112C46.4391 126.202 46.4194 132.288 46.3568 138.371ZM233.857 219.74C233.834 218.699 233.867 217.658 233.956 216.621C234.486 214.335 235.886 212.896 238.158 212.31C239.528 212.191 240.902 212.158 242.278 212.211C244.834 212.646 246.379 214.134 246.919 216.677C247.021 217.968 247.05 219.262 247.011 220.56C246.599 223.185 245.114 224.848 242.548 225.546C241.257 225.645 239.963 225.661 238.665 225.602C235.507 224.92 233.906 222.967 233.857 219.74Z" fill="#FC9870" stroke="#FC9870" stroke-width="0.5"/>
<path fill-rule="evenodd" clip-rule="evenodd" d="M283.93 175.924C283.93 174.425 283.99 172.933 284.111 171.451C284.25 172.551 284.309 173.661 284.286 174.784C284.263 181.806 284.26 188.831 284.279 195.852C284.302 196.119 284.243 196.36 284.102 196.577C284.006 196.475 283.96 196.35 283.963 196.205C283.973 189.443 283.963 182.685 283.93 175.924ZM42.9609 269.224C48.9122 269.175 54.8635 269.142 60.8148 269.122C61.3714 269.135 61.9313 269.145 62.4879 269.152C62.6196 269.155 62.7316 269.201 62.8238 269.293C62.3858 269.422 61.9346 269.478 61.4702 269.468C55.4234 269.474 49.3799 269.442 43.3364 269.372C43.1717 269.399 43.0466 269.349 42.9609 269.224Z" fill="#151F2F"/>
<path fill-rule="evenodd" clip-rule="evenodd" d="M71.127 84.0825C71.1994 77.2518 71.2027 70.4212 71.1401 63.5906C71.206 63.5181 71.2817 63.4588 71.3674 63.416C71.4398 65.1813 71.4925 66.9565 71.5189 68.735C71.5353 72.473 71.4925 76.2111 71.3871 79.9492C71.4201 81.1513 71.4728 82.3534 71.5386 83.5555C71.5123 84.0232 71.4365 84.481 71.3147 84.9289C71.2126 84.6588 71.15 84.3756 71.127 84.0825Z" fill="#10202B"/>
<path fill-rule="evenodd" clip-rule="evenodd" d="M30.3828 63.6309C30.3499 70.4351 30.3466 77.2394 30.3828 84.047C30.1819 83.9383 30.0732 83.7737 30.0535 83.5464C30.116 80.5856 30.149 77.6248 30.1556 74.6607C30.1457 72.3552 30.1095 70.0498 30.0469 67.7477C30.06 66.4501 30.0864 65.1524 30.1358 63.8581C30.1819 63.7395 30.2642 63.6638 30.3828 63.6309Z" fill="#2E4346"/>
<path fill-rule="evenodd" clip-rule="evenodd" d="M254.286 255.656C254.355 250.209 254.372 244.761 254.329 239.317C254.336 239.182 254.382 239.067 254.474 238.975C254.579 239.745 254.625 240.526 254.612 241.313C254.615 246.032 254.619 250.752 254.622 255.472C254.662 255.943 254.602 256.39 254.447 256.822C254.306 256.453 254.25 256.064 254.286 255.656Z" fill="#0C1C33"/>
<path fill-rule="evenodd" clip-rule="evenodd" d="M113.675 307.676C113.705 303.015 113.708 298.355 113.682 293.698C113.665 293.323 113.708 292.957 113.81 292.602C113.876 292.951 113.932 293.3 113.978 293.652C113.962 298.059 113.981 302.469 114.031 306.875C114.031 307.989 113.981 309.092 113.879 310.189C113.708 309.359 113.642 308.522 113.675 307.676Z" fill="#121C2C"/>
<path fill-rule="evenodd" clip-rule="evenodd" d="M193.005 318.863C193.087 316.074 193.104 313.284 193.048 310.491C193.048 309.908 193.091 309.332 193.176 308.766C193.308 309.546 193.367 310.337 193.361 311.134C193.278 312.889 193.242 314.644 193.245 316.4C193.367 318.043 193.403 319.693 193.361 321.343C193.367 321.709 193.314 322.065 193.193 322.404C193.104 322.302 193.054 322.18 193.051 322.038C193.044 320.981 193.031 319.924 193.005 318.863Z" fill="#0D1B29"/>
<path fill-rule="evenodd" clip-rule="evenodd" d="M162.741 169.022C162.745 168.412 162.751 167.806 162.761 167.197C162.84 166.664 162.939 166.66 163.057 167.191C163.024 170.609 163.018 174.028 163.031 177.446C163.031 177.585 162.995 177.713 162.919 177.825C162.84 174.901 162.781 171.966 162.741 169.022Z" fill="#0B202C"/>
<path fill-rule="evenodd" clip-rule="evenodd" d="M169.321 183.92C172.941 183.966 176.56 183.973 180.18 183.936C179.943 184.104 179.676 184.18 179.383 184.167C176.415 184.177 173.448 184.18 170.481 184.174C170.066 184.206 169.677 184.124 169.321 183.92Z" fill="#77474B"/>
<path fill-rule="evenodd" clip-rule="evenodd" d="M254.318 59.3789C256.232 59.3559 258.149 59.3526 260.065 59.3724C260.741 59.4086 261.412 59.4613 262.078 59.5271C260.2 59.6391 258.317 59.6918 256.426 59.6819C255.873 59.6457 255.323 59.6325 254.773 59.6457C254.565 59.6457 254.414 59.5568 254.318 59.3789Z" fill="#0A1B2D"/>
<path fill-rule="evenodd" clip-rule="evenodd" d="M153.187 56.1445C155.261 56.1709 157.343 56.1742 159.424 56.1544C159.299 56.2894 159.144 56.3619 158.957 56.3718C157.31 56.3915 155.66 56.3915 154.01 56.3652C153.71 56.3817 153.434 56.3059 153.187 56.1445Z" fill="#2B6A73"/>
<path fill-rule="evenodd" clip-rule="evenodd" d="M147.611 44.1934C147.571 46.176 147.568 48.1587 147.598 50.1414C147.384 50.0491 147.281 49.8812 147.298 49.6407C147.295 48.0994 147.288 46.5581 147.278 45.0167C147.245 44.6808 147.354 44.4041 147.611 44.1934Z" fill="#214A56"/>
</svg>
