<svg width="311" height="362" viewBox="0 0 311 362" fill="none" xmlns="http://www.w3.org/2000/svg">
<path d="M71 48C76.5228 48 81 43.5228 81 38C81 32.4772 76.5228 28 71 28C65.4772 28 61 32.4772 61 38C61 43.5228 65.4772 48 71 48Z" fill="#FF897D"/>
<path d="M125.5 46C137.926 46 148 35.9264 148 23.5C148 11.0736 137.926 1 125.5 1C113.074 1 103 11.0736 103 23.5C103 35.9264 113.074 46 125.5 46Z" fill="#FF897D"/>
<path d="M159 16C163.418 16 167 12.4183 167 8C167 3.58172 163.418 0 159 0C154.582 0 151 3.58172 151 8C151 12.4183 154.582 16 159 16Z" fill="#E9CDA4"/>
<path d="M194 3H180C175.029 3 171 7.02944 171 12V26C171 30.9706 175.029 35 180 35H194C198.971 35 203 30.9706 203 26V12C203 7.02944 198.971 3 194 3Z" fill="#B9DFBF"/>
<path d="M214 37C217.866 37 221 33.866 221 30C221 26.134 217.866 23 214 23C210.134 23 207 26.134 207 30C207 33.866 210.134 37 214 37Z" fill="#9DDBB1"/>
<path d="M261 63C263.761 63 266 60.7614 266 58C266 55.2386 263.761 53 261 53C258.239 53 256 55.2386 256 58C256 60.7614 258.239 63 261 63Z" fill="#67D2CA"/>
<path d="M248 54C256.837 54 264 46.8366 264 38C264 29.1634 256.837 22 248 22C239.163 22 232 29.1634 232 38C232 46.8366 239.163 54 248 54Z" fill="url(#paint0_linear_1060_743)"/>
<path d="M273.5 55C277.642 55 281 51.6421 281 47.5C281 43.3579 277.642 40 273.5 40C269.358 40 266 43.3579 266 47.5C266 51.6421 269.358 55 273.5 55Z" fill="#C6CCE4"/>
<path d="M290 74C292.761 74 295 71.7614 295 69C295 66.2386 292.761 64 290 64C287.239 64 285 66.2386 285 69C285 71.7614 287.239 74 290 74Z" fill="#62C0E8"/>
<path d="M159 38C163.418 38 167 34.4183 167 30C167 25.5817 163.418 22 159 22C154.582 22 151 25.5817 151 30C151 34.4183 154.582 38 159 38Z" fill="#67D2CA"/>
<path d="M213 17C215.761 17 218 14.7614 218 12C218 9.23858 215.761 7 213 7C210.239 7 208 9.23858 208 12C208 14.7614 210.239 17 213 17Z" fill="#FF897D"/>
<path d="M229 27C233.418 27 237 23.4183 237 19C237 14.5817 233.418 11 229 11C224.582 11 221 14.5817 221 19C221 23.4183 224.582 27 229 27Z" fill="#C6CCE4"/>
<path opacity="0.82" d="M276 72C279.866 72 283 68.866 283 65C283 61.134 279.866 58 276 58C272.134 58 269 61.134 269 65C269 68.866 272.134 72 276 72Z" fill="#FFAD8C"/>
<path d="M67.375 50H44.625C39.3093 50 35 54.3093 35 59.625V82.375C35 87.6907 39.3093 92 44.625 92H67.375C72.6907 92 77 87.6907 77 82.375V59.625C77 54.3093 72.6907 50 67.375 50Z" fill="#B9DFBF"/>
<path d="M25 117C31.0751 117 36 112.075 36 106C36 99.9249 31.0751 95 25 95C18.9249 95 14 99.9249 14 106C14 112.075 18.9249 117 25 117Z" fill="#67D2CA"/>
<path d="M92 67C97.5228 67 102 62.5228 102 57C102 51.4772 97.5228 47 92 47C86.4772 47 82 51.4772 82 57C82 62.5228 86.4772 67 92 67Z" fill="#FFAD8C"/>
<path opacity="0.9" d="M53 122C59.0751 122 64 117.075 64 111C64 104.925 59.0751 100 53 100C46.9249 100 42 104.925 42 111C42 117.075 46.9249 122 53 122Z" fill="#FF897D"/>
<path d="M113 321C117.418 321 121 317.418 121 313C121 308.582 117.418 305 113 305C108.582 305 105 308.582 105 313C105 317.418 108.582 321 113 321Z" fill="#67D2CA"/>
<path d="M33.75 123H11.25C5.0368 123 0 128.037 0 134.25V156.75C0 162.963 5.0368 168 11.25 168H33.75C39.9632 168 45 162.963 45 156.75V134.25C45 128.037 39.9632 123 33.75 123Z" fill="#FFAD8C"/>
<path d="M44 212C48.9706 212 53 207.971 53 203C53 198.029 48.9706 194 44 194C39.0294 194 35 198.029 35 203C35 207.971 39.0294 212 44 212Z" fill="#FFAD8C"/>
<path d="M33 250C42.9411 250 51 241.941 51 232C51 222.059 42.9411 214 33 214C23.0589 214 15 222.059 15 232C15 241.941 23.0589 250 33 250Z" fill="#FC8277"/>
<path d="M18 211C25.732 211 32 204.732 32 197C32 189.268 25.732 183 18 183C10.268 183 4 189.268 4 197C4 204.732 10.268 211 18 211Z" fill="#67D2CA"/>
<path d="M93 42C96.866 42 100 38.866 100 35C100 31.134 96.866 28 93 28C89.134 28 86 31.134 86 35C86 38.866 89.134 42 93 42Z" fill="#B9DFBF"/>
<path d="M59 263C63.4183 263 67 259.418 67 255C67 250.582 63.4183 247 59 247C54.5817 247 51 250.582 51 255C51 259.418 54.5817 263 59 263Z" fill="#9DDBB1"/>
<path d="M88.8378 271H63.1622C56.4452 271 51 276.445 51 283.162V308.838C51 315.555 56.4452 321 63.1622 321H88.8378C95.5548 321 101 315.555 101 308.838V283.162C101 276.445 95.5548 271 88.8378 271Z" fill="#9DDBB1"/>
<path d="M114.5 350C121.404 350 127 344.404 127 337.5C127 330.596 121.404 325 114.5 325C107.596 325 102 330.596 102 337.5C102 344.404 107.596 350 114.5 350Z" fill="url(#paint1_linear_1060_743)"/>
<path d="M207 315C210.314 315 213 312.314 213 309C213 305.686 210.314 303 207 303C203.686 303 201 305.686 201 309C201 312.314 203.686 315 207 315Z" fill="#9DDBB1"/>
<path d="M35 185C38.866 185 42 181.866 42 178C42 174.134 38.866 171 35 171C31.134 171 28 174.134 28 178C28 181.866 31.134 185 35 185Z" fill="#9DDBB1"/>
<path d="M163 319H141C136.029 319 132 323.029 132 328V350C132 354.971 136.029 359 141 359H163C167.971 359 172 354.971 172 350V328C172 323.029 167.971 319 163 319Z" fill="#C6CCE4"/>
<path d="M38 281C45.1797 281 51 275.18 51 268C51 260.82 45.1797 255 38 255C30.8203 255 25 260.82 25 268C25 275.18 30.8203 281 38 281Z" fill="url(#paint2_linear_1060_743)"/>
<path d="M201 317H188C183.582 317 180 320.582 180 325V338C180 342.418 183.582 346 188 346H201C205.418 346 209 342.418 209 338V325C209 320.582 205.418 317 201 317Z" fill="#FF897D"/>
<path d="M181 362C184.866 362 188 358.866 188 355C188 351.134 184.866 348 181 348C177.134 348 174 351.134 174 355C174 358.866 177.134 362 181 362Z" fill="#9DDBB1"/>
<path d="M238 307H223C219.134 307 216 310.134 216 314V329C216 332.866 219.134 336 223 336H238C241.866 336 245 332.866 245 329V314C245 310.134 241.866 307 238 307Z" fill="#FFAD8C"/>
<path d="M257 325C261.418 325 265 321.418 265 317C265 312.582 261.418 309 257 309C252.582 309 249 312.582 249 317C249 321.418 252.582 325 257 325Z" fill="#C6CCE4"/>
<path d="M232 302C236.418 302 240 298.418 240 294C240 289.582 236.418 286 232 286C227.582 286 224 289.582 224 294C224 298.418 227.582 302 232 302Z" fill="#62C0E8"/>
<path d="M296 264C302.075 264 307 259.075 307 253C307 246.925 302.075 242 296 242C289.925 242 285 246.925 285 253C285 259.075 289.925 264 296 264Z" fill="#62C0E8"/>
<path d="M272 260C275.866 260 279 256.866 279 253C279 249.134 275.866 246 272 246C268.134 246 265 249.134 265 253C265 256.866 268.134 260 272 260Z" fill="#FFAD8C"/>
<path d="M96 333C98.7614 333 101 330.761 101 328C101 325.239 98.7614 323 96 323C93.2386 323 91 325.239 91 328C91 330.761 93.2386 333 96 333Z" fill="#FFAD8C"/>
<path d="M298.719 187H273.281C266.498 187 261 192.498 261 199.281V224.719C261 231.502 266.498 237 273.281 237H298.719C305.502 237 311 231.502 311 224.719V199.281C311 192.498 305.502 187 298.719 187Z" fill="#9DDBB1"/>
<path d="M274.421 265H254.579C249.289 265 245 269.289 245 274.579V294.421C245 299.711 249.289 304 254.579 304H274.421C279.711 304 284 299.711 284 294.421V274.579C284 269.289 279.711 265 274.421 265Z" fill="#B9A181"/>
<path d="M245.744 187H226.256C220.592 187 216 191.592 216 197.256V216.744C216 222.408 220.592 227 226.256 227H245.744C251.408 227 256 222.408 256 216.744V197.256C256 191.592 251.408 187 245.744 187Z" fill="url(#paint3_linear_1060_743)"/>
<path d="M251 246C255.418 246 259 242.418 259 238C259 233.582 255.418 230 251 230C246.582 230 243 233.582 243 238C243 242.418 246.582 246 251 246Z" fill="#C6CCE4"/>
<path d="M203.174 187H188.826C184.504 187 181 190.504 181 194.826V209.174C181 213.496 184.504 217 188.826 217H203.174C207.496 217 211 213.496 211 209.174V194.826C211 190.504 207.496 187 203.174 187Z" fill="url(#paint4_linear_1060_743)"/>
<path d="M295 282C298.866 282 302 278.866 302 275C302 271.134 298.866 268 295 268C291.134 268 288 271.134 288 275C288 278.866 291.134 282 295 282Z" fill="#9DDBB1"/>
<defs>
<linearGradient id="paint0_linear_1060_743" x1="232" y1="22" x2="264" y2="54" gradientUnits="userSpaceOnUse">
<stop stop-color="#62C0E8"/>
<stop offset="1" stop-color="#3B93C3"/>
</linearGradient>
<linearGradient id="paint1_linear_1060_743" x1="102" y1="325" x2="127" y2="350" gradientUnits="userSpaceOnUse">
<stop stop-color="#FF897D"/>
<stop offset="1" stop-color="#F46B63"/>
</linearGradient>
<linearGradient id="paint2_linear_1060_743" x1="25" y1="255" x2="51" y2="281" gradientUnits="userSpaceOnUse">
<stop stop-color="#E9CDA4"/>
<stop offset="1" stop-color="#C9A982"/>
</linearGradient>
<linearGradient id="paint3_linear_1060_743" x1="216" y1="187" x2="256" y2="227" gradientUnits="userSpaceOnUse">
<stop stop-color="#62C0E8"/>
<stop offset="1" stop-color="#3B93C3"/>
</linearGradient>
<linearGradient id="paint4_linear_1060_743" x1="181" y1="187" x2="211" y2="217" gradientUnits="userSpaceOnUse">
<stop stop-color="#FF897D"/>
<stop offset="1" stop-color="#F46B63"/>
</linearGradient>
</defs>
</svg>
